<svg width="270" height="270" viewBox="0 0 270 270" fill="none" xmlns="http://www.w3.org/2000/svg">
<path fill-rule="evenodd" clip-rule="evenodd" d="M269.997 134.998C269.997 209.507 209.507 269.997 134.998 269.997C60.49 269.997 0 209.507 0 134.998C0 60.49 60.49 0 134.998 0C209.507 0 269.997 60.49 269.997 134.998ZM249.998 134.998C249.998 198.467 198.467 249.998 134.998 249.998C71.53 249.998 19.999 198.467 19.999 134.998C19.999 71.53 71.53 19.999 134.998 19.999C198.467 19.999 249.998 71.53 249.998 134.998Z" fill="#F53D3D"/>
<path d="M179.923 135.006C179.923 118.175 163.623 113.392 138.288 110.734C92.9341 105.774 67.5991 99.9275 67.5991 60.0645H97.5401C97.5401 76.8955 114.016 81.5025 138.82 84.1595C180.986 88.5885 210.041 94.0815 210.041 135.006H179.923Z" fill="#F53D3D"/>
<path d="M179.923 202.491C179.923 185.66 163.623 180.876 138.288 178.219C92.9341 173.258 67.5991 167.412 67.5991 127.549H97.5401C97.5401 144.38 114.016 148.986 138.82 151.644C180.986 156.073 210.041 161.565 210.041 202.491H179.923Z" fill="#F53D3D"/>
<path d="M97.5981 183.738H67.5991V202.488H97.5981V183.738Z" fill="#F53D3D"/>
</svg>
