<svg width="1022" height="270" viewBox="0 0 1022 270" fill="none" xmlns="http://www.w3.org/2000/svg">
<g clip-path="url(#clip0_797_13494)">
<path fill-rule="evenodd" clip-rule="evenodd" d="M270.419 134.998C270.419 209.507 209.929 269.997 135.42 269.997C60.9119 269.997 0.421875 209.507 0.421875 134.998C0.421875 60.49 60.9119 0 135.42 0C209.929 0 270.419 60.49 270.419 134.998ZM250.42 134.998C250.42 198.467 198.889 249.998 135.42 249.998C71.9519 249.998 20.4209 198.467 20.4209 134.998C20.4209 71.53 71.9519 19.999 135.42 19.999C198.889 19.999 250.42 71.53 250.42 134.998Z" fill="#F53D3D"/>
<path d="M180.345 135.006C180.345 118.175 164.045 113.392 138.71 110.734C93.356 105.774 68.021 99.9275 68.021 60.0645H97.962C97.962 76.8955 114.438 81.5025 139.242 84.1595C181.408 88.5885 210.463 94.0815 210.463 135.006H180.345Z" fill="#F53D3D"/>
<path d="M180.345 202.491C180.345 185.66 164.045 180.876 138.71 178.219C93.356 173.258 68.021 167.412 68.021 127.549H97.962C97.962 144.38 114.438 148.986 139.242 151.644C181.408 156.073 210.463 161.565 210.463 202.491H180.345Z" fill="#F53D3D"/>
<path d="M98.02 183.738H68.021V202.488H98.02V183.738Z" fill="#F53D3D"/>
<path d="M360.707 164.506C360.892 177.655 365.707 188.396 375.338 196.359C385.153 204.323 398.672 208.397 415.895 208.397C432.378 208.397 445.342 204.693 454.972 197.285C464.787 189.877 469.602 179.507 469.602 166.358C469.602 144.69 454.972 132.467 433.304 128.208L410.154 123.578C405.154 122.652 404.598 122.281 399.598 120.614C397.191 119.688 395.339 118.577 394.042 117.651C391.82 115.429 389.042 111.354 389.042 106.354C389.042 95.4265 397.561 88.9455 412.932 88.9455C428.674 88.9455 438.86 95.9825 439.786 109.503H464.787C464.602 97.4645 459.972 87.8345 450.897 80.6115C441.823 73.3885 429.6 69.6855 414.043 69.6855C398.857 69.6855 386.634 73.3885 377.375 80.7965C368.115 88.0195 363.485 97.6495 363.485 109.688C363.485 120.615 368.3 129.503 373.3 134.133C375.893 136.541 379.226 138.578 383.486 140.615C387.745 142.467 391.079 143.764 393.301 144.319C395.524 144.875 398.487 145.616 402.191 146.356L424.97 151.172C429.415 152.098 431.637 152.653 436.267 155.431C441.267 157.838 443.675 162.469 443.675 168.951C443.675 180.988 433.489 188.951 416.266 188.951C397.005 188.951 386.449 180.248 385.708 164.506H360.707Z" fill="#F53D3D"/>
<path d="M587.533 206.539V185.241H518.64V146.721H581.114V126.719H518.64V92.8292H587.533V71.5312H494.564V206.539H587.533Z" fill="#F53D3D"/>
<path d="M637.739 206.539V157.092H673.296C687.927 157.092 692.742 163.018 692.742 176.167V190.242C692.742 198.205 693.483 203.761 694.779 206.539H719.595V205.576C717.95 203.946 717.558 197.835 717.558 190.983V172.092C717.558 157.647 711.391 145.61 692.649 145.61V144.647C711.391 142.943 719.78 126.349 719.78 110.978C719.78 86.5322 704.78 71.5312 677.185 71.5312H613.663V206.539H637.739ZM637.739 92.6432H670.704C686.26 92.6432 694.038 99.6812 694.038 113.756C694.038 127.275 684.593 135.979 668.852 135.979H637.739V92.6432Z" fill="#F53D3D"/>
<path d="M771.852 71.5312H747.776V206.539H771.852V71.5312Z" fill="#F53D3D"/>
<path d="M897.49 206.539V185.241H828.602V146.721H891.076V126.719H828.602V92.8292H897.49V71.5312H804.526V206.539H897.49Z" fill="#F53D3D"/>
<path d="M912.68 164.506C912.87 177.655 917.68 188.396 927.31 196.359C937.13 204.323 950.65 208.397 967.87 208.397C984.35 208.397 997.32 204.693 1006.95 197.285C1016.76 189.877 1021.58 179.507 1021.58 166.358C1021.58 144.69 1006.95 132.467 985.28 128.208L962.13 123.578C957.13 122.652 956.57 122.281 951.57 120.614C949.17 119.688 947.31 118.577 946.02 117.651C943.79 115.429 941.02 111.354 941.02 106.354C941.02 95.4265 949.54 88.9455 964.91 88.9455C980.65 88.9455 990.83 95.9825 991.76 109.503H1016.76C1016.58 97.4645 1011.95 87.8345 1002.87 80.6115C993.8 73.3885 981.57 69.6855 966.02 69.6855C950.83 69.6855 938.61 73.3885 929.35 80.7965C920.09 88.0195 915.46 97.6495 915.46 109.688C915.46 120.615 920.27 129.503 925.28 134.133C927.87 136.541 931.2 138.578 935.46 140.615C939.72 142.467 943.05 143.764 945.28 144.319C947.5 144.875 950.46 145.616 954.17 146.356L976.94 151.172C981.39 152.098 983.61 152.653 988.24 155.431C993.24 157.838 995.65 162.469 995.65 168.951C995.65 180.988 985.46 188.951 968.24 188.951C948.98 188.951 938.42 180.248 937.68 164.506H912.68Z" fill="#F53D3D"/>
</g>
<defs>
<clipPath id="clip0_797_13494">
<rect width="1022" height="270" fill="white"/>
</clipPath>
</defs>
</svg>
